{"title":"Rise Of The Planet Of The Apes *2011* [TS.XviD-miguel] [ENG]","uid":6619233,"size":1514433359,"categoryP":"video","categoryS":"movies","magnet":"?xt=urn:btih:cdb82d09894f93a6a10c5e925c95fc285838158e&amp;dn=Rise+Of+The+Planet+Of+The+Apes+%2A2011%2A+%5BTS.XviD-miguel%5D+%5BENG%5D&amp;tr=udp%3A%2F%2Ftracker.openbittorrent.com%3A80&amp;tr=udp%3A%2F%2Fopen.demonii.com%3A1337&amp;tr=udp%3A%2F%2Ftracker.coppersurfer.tk%3A6969&amp;tr=udp%3A%2F%2Fexodus.desync.com%3A6969","seeders":1,"leechers":0,"uploader":"miguel1983","files":-1,"time":1313925176,"description":" &lt;a href=&quot;http://img155.imageshack.us/img155/1068/riseoftheplanetoftheapeh.jpg&quot; rel=&quot;nofollow&quot; target=&quot;_NEW&quot;&gt;http://img155.imageshack.us/img155/1068/riseoftheplanetoftheapeh.jpg&lt;/a&gt;\n\nCountry.......: USA\nGenre.........: Sci-Fi, Thriller, Drama, Action, Adventure\nDate release..: 03.08.2011 [World]\nDirector......: Rupert Wyatt\nWriters.......: Rick Jaffa, Amanda Silver\nDuration......: 98 min.\nMore..........: http://www.imdb.com/title/tt1318514\nTrailer.......: http://www.imdb.com/video/imdb/vi1615502617\nTrailer.......:\n\nPilot :\nDuring experiments to find a cure for Alzheimer's disease, a genetically-enhanced chimpanzee uses its greater intelligence to lead other apes to freedom. \n\nCats :\nJames Franco   \t ...  \tWill Rodman\nFreida Pinto \t... \tCaroline Aranha\nJohn Lithgow \t... \tCharles Rodman\nBrian Cox \t... \tJohn Landon\nTom Felton \t... \tDodge Landon\nDavid Oyelowo \t... \tSteven Jacobs\nTyler Labine \t... \tRobert Franklin\nJamie Harris \t... \tRodney\nDavid Hewlett \t... \tHunsiker\nTy Olsson \t... \tChief John Hamil\nMadison Bell \t... \tAlice Hunsiker\nMakena Joy \t... \tAlice Hunsiker (Teen)\nKevin O Grady \t... \tAnimal Control Officer #1\nSean Tyson \t... \tAnimal Control Officer #2\nJack Kuris \t... \tBoy in Muir Woods \n\nData Technical :\n!!! SAMPLE !!!\nAudio.....: English\nSubtitles.: Polish .txt\nFormat                           : AVI\nFormat/Info                      : Audio Video Interleave\nFile size                        : 1.40 GiB\nDuration                         : 1h 37mn\nOverall bit rate                 : 2 054 Kbps\nWriting application              : Nandub v1.0rc2\nWriting library                  : Nandub build 1853/release\nVideo\nID                               : 0\nFormat                           : MPEG-4 Visual\nFormat profile                   : Advanced Simple@L5\nFormat settings, BVOP            : Yes\nFormat settings, QPel            : Yes\nFormat settings, GMC             : No warppoints\nFormat settings, Matrix          : Default (H.263)\nMuxing mode                      : Packed bitstream\nCodec ID                         : XVID\nCodec ID/Hint                    : XviD\nDuration                         : 1h 37mn\nBit rate                         : 1 788 Kbps\nWidth                            : 720 pixels\nHeight                           : 304 pixels\nDisplay aspect ratio             : 2.35:1\nFrame rate                       : 25.000 fps\nColor space                      : YUV\nChroma subsampling               : 4:2:0\nBit depth                        : 8 bits\nScan type                        : Progressive\nBits/(Pixel*Frame)               : 0.327\nStream size                      : 1.22 GiB (87%)\nWriting library                  : XviD 1.2.1 (UTC 2008-12-04)\nAudio\nID                               : 1\nFormat                           : AC-3\nFormat/Info                      : Audio Coding 3\nMode extension                   : CM (complete main)\nCodec ID                         : 2000\nDuration                         : 1h 37mn\nBit rate mode                    : Constant\nBit rate                         : 256 Kbps\nChannel(s)                       : 2 channels\nChannel positions                : Front: L R\nSampling rate                    : 48.0 KHz\nBit depth                        : 16 bits\nStream size                      : 179 MiB (12%)\nAlignment                        : Split accross interleaves\nInterleave, duration             : 40 ms (1.00 video frame)\nInterleave, preload duration     : 500 ms\n\nScreen : &lt;a href=&quot;\nhttp://img805.imageshack.us/img805/3185/riseoftheplanetoftheapey.jpg&quot; rel=&quot;nofollow&quot; target=&quot;_NEW&quot;&gt;\nhttp://img805.imageshack.us/img805/3185/riseoftheplanetoftheapey.jpg&lt;/a&gt; &lt;a href=&quot;\nhttp://img14.imageshack.us/img14/6360/riseoftheplanetoftheapen.jpg&quot; rel=&quot;nofollow&quot; target=&quot;_NEW&quot;&gt;\nhttp://img14.imageshack.us/img14/6360/riseoftheplanetoftheapen.jpg&lt;/a&gt; &lt;a href=&quot;\nhttp://img535.imageshack.us/img535/8058/riseoftheplanetoftheapef.jpg&quot; rel=&quot;nofollow&quot; target=&quot;_NEW&quot;&gt;\nhttp://img535.imageshack.us/img535/8058/riseoftheplanetoftheapef.jpg&lt;/a&gt; &lt;a href=&quot;\nhttp://img534.imageshack.us/img534/1068/riseoftheplanetoftheapeh.jpg&quot; rel=&quot;nofollow&quot; target=&quot;_NEW&quot;&gt;\nhttp://img534.imageshack.us/img534/1068/riseoftheplanetoftheapeh.jpg&lt;/a&gt; &lt;a href=&quot;\nhttp://img708.imageshack.us/img708/9199/riseoftheplanetoftheape.jpg&quot; rel=&quot;nofollow&quot; target=&quot;_NEW&quot;&gt;\nhttp://img708.imageshack.us/img708/9199/riseoftheplanetoftheape.jpg&lt;/a&gt;","torrent":{"xt":"urn:btih:cdb82d09894f93a6a10c5e925c95fc285838158e","amp;dn":"Rise+Of+The+Planet+Of+The+Apes+%2A2011%2A+%5BTS.XviD-miguel%5D+%5BENG%5D","amp;tr":["udp%3A%2F%2Ftracker.openbittorrent.com%3A80","udp%3A%2F%2Fopen.demonii.com%3A1337","udp%3A%2F%2Ftracker.coppersurfer.tk%3A6969","udp%3A%2F%2Fexodus.desync.com%3A6969"],"infoHash":"cdb82d09894f93a6a10c5e925c95fc285838158e","infoHashBuffer":{"type":"Buffer","data":[205,184,45,9,137,79,147,166,161,12,94,146,92,149,252,40,88,56,21,142]},"announce":[],"urlList":[]}}